<?xml version="1.0" encoding="utf-8"?>
<!-- Generator: Adobe Illustrator 21.0.2, SVG Export Plug-In . SVG Version: 6.00 Build 0)  -->
<svg version="1.1" id="Shape_1_1_" xmlns="http://www.w3.org/2000/svg" xmlns:xlink="http://www.w3.org/1999/xlink" x="0px" y="0px"
	 viewBox="0 0 490 490" style="enable-background:new 0 0 490 490;" xml:space="preserve">
<style type="text/css">
	.st0{fill-rule:evenodd;clip-rule:evenodd;}
</style>
<g id="Shape_1">
	<g>
		<path class="st0" d="M286.9,177.6l-42,42l-42-42c-7-7-18.4-7-25.5,0c-7,7-7,18.4,0,25.5l42,42l-42,42c-7,7-7,18.4,0,25.5
			c3.5,3.5,8.1,5.3,12.7,5.3s9.2-1.8,12.7-5.3l42-42l42,42c3.5,3.5,8.1,5.3,12.7,5.3s9.2-1.8,12.7-5.3c7-7,7-18.4,0-25.5l-42-42
			l42-42c7.3-7.1,7.3-18.5,0.2-25.5C305.4,170.6,294,170.6,286.9,177.6z M418.3,71.6c-7-7-18.4-7-25.4,0l-56,55.9
			c-7,7-7,18.4,0,25.5c7,7,18.4,7,25.5,0l42.7-42.7c69.1,82.1,65,205.2-12.2,282.4c-39.5,39.5-92,61.3-147.9,61.3
			s-108.3-21.7-147.9-61.2c-81.5-81.6-81.5-214.2,0-295.7c50.1-50.1,121.5-71.4,190.9-56.8c9.7,2,19.3-4.2,21.3-13.9
			c2-9.7-4.2-19.3-13.9-21.3c-81.3-17.2-165,7.7-223.7,66.5C25.5,117.9,0,179.5,0,244.9s25.5,127,71.7,173.3S179.6,490,245,490
			s127-25.5,173.3-71.8C464.5,372,490,310.4,490,244.9S464.5,117.9,418.3,71.6z"/>
	</g>
</g>
</svg>
