<?xml version="1.0" encoding="utf-8"?>
<!-- Generator: Adobe Illustrator 21.0.2, SVG Export Plug-In . SVG Version: 6.00 Build 0)  -->
<svg version="1.1" id="Shape_1_1_" xmlns="http://www.w3.org/2000/svg" xmlns:xlink="http://www.w3.org/1999/xlink" x="0px" y="0px"
	 viewBox="0 0 422 490" style="enable-background:new 0 0 422 490;" xml:space="preserve">
<style type="text/css">
	.st0{fill-rule:evenodd;clip-rule:evenodd;}
</style>
<g id="Shape_1">
	<g>
		<path class="st0" d="M198.2,383.3c3.5,3.5,8.1,5.3,12.7,5.3s9.2-1.8,12.7-5.3L330,276.8c7-7,7-18.4,0-25.5c-7-7-18.4-7-25.5,0
			L229,327.1V130.9c0-9.9-8.1-18-18-18s-18,8.1-18,18v196.2l-75.7-75.8c-7-7-18.4-7-25.5,0c-7,7-7,18.4,0,25.5L198.2,383.3z
			 M211,77.2c9.9,0,18-8.1,18-18V18c0-9.9-8.1-18-18-18s-18,8.1-18,18v41.2C193,69.1,201.1,77.2,211,77.2z M404,334.9
			c-9.9,0-18,8.1-18,18V454H36V352.9c0-9.9-8.1-18-18-18c-9.9,0-18,8.1-18,18V472c0,9.9,8.1,18,18,18h385.9c10,0,18.1-8.1,18.1-18
			V352.9C422,343,413.9,334.9,404,334.9z"/>
	</g>
</g>
</svg>
