<?xml version="1.0" encoding="utf-8"?>
<!-- Generator: Adobe Illustrator 21.0.2, SVG Export Plug-In . SVG Version: 6.00 Build 0)  -->
<svg version="1.1" id="Forma_1_1_" xmlns="http://www.w3.org/2000/svg" xmlns:xlink="http://www.w3.org/1999/xlink" x="0px" y="0px"
	 viewBox="0 0 559 548" style="enable-background:new 0 0 559 548;" xml:space="preserve">
<style type="text/css">
	.st0{fill-rule:evenodd;clip-rule:evenodd;}
</style>
<g id="Forma_1">
	<g>
		<path class="st0" d="M539.1,509.1H19.9c-10.9,0-19.5,9-19.5,19.4c0,10.4,9,19.4,19.5,19.4h519.6c10.9,0,19.5-9,19.5-19.4
			C559,518.1,550,509.1,539.1,509.1z M19.5,449.4l92.1-0.5c5.2,0,10-1.9,13.8-5.7l317.9-317.7c7.6-7.6,7.6-19.9,0-28l-91.1-92
			c-7.6-7.6-19.9-7.6-28,0l-63.6,64L6.2,323.3c-3.3,3.8-5.7,8.5-5.7,13.8L0,429.5c0,5.2,1.9,10.4,5.7,14.2
			C9.5,447.5,14.2,449.4,19.5,449.4z M338.3,47.3l64.1,64l-36.1,36l-64.1-64L338.3,47.3z M39.9,345.5l234.4-234.2l64.1,64
			L103.9,409.1l-64.5,0.5L39.9,345.5z"/>
	</g>
</g>
</svg>
