<?xml version="1.0" encoding="utf-8"?>
<!-- Generator: Adobe Illustrator 21.0.2, SVG Export Plug-In . SVG Version: 6.00 Build 0)  -->
<svg version="1.1" id="Shape_1_1_" xmlns="http://www.w3.org/2000/svg" xmlns:xlink="http://www.w3.org/1999/xlink" x="0px" y="0px"
	 viewBox="0 0 512 497" style="enable-background:new 0 0 512 497;" xml:space="preserve">
<style type="text/css">
	.st0{fill-rule:evenodd;clip-rule:evenodd;}
</style>
<g id="Shape_1">
	<g>
		<path class="st0" d="M372.5,452.9H254.9c11-11,212.9-212.7,224.3-224.1c23.1-23.1,23.1-60.7,0-83.8l-127-126.9
			C329-5,291.4-5,268.2,18.1l-251,250.8c-23.2,23.2-23.2,60.7,0,83.8l127,126.9v0c11.4,11.4,26.4,17.2,41.5,17.3c0.2,0,0.3,0,0.5,0
			h186.4c12.2,0,22.1-9.9,22.1-22C394.6,462.8,384.7,452.9,372.5,452.9z M299.4,49.3c5.9-5.9,15.6-5.9,21.5,0l127,126.9
			c5.9,5.9,5.9,15.6,0,21.5L338.1,307.5L189.5,159.1L299.4,49.3z M175.4,448.5l-127-126.9c-6-5.9-6-15.6,0-21.5l109.9-109.8
			l148.6,148.4L196.9,448.5C191,454.4,181.3,454.4,175.4,448.5z M489.9,452.9h-37.3c-12.2,0-22.1,9.9-22.1,22c0,12.2,9.9,22,22.1,22
			h37.3c12.2,0,22.1-9.9,22.1-22C512,462.8,502.1,452.9,489.9,452.9z M452.3,400.3c0-12.2-9.9-22-22.1-22h-37.3
			c-12.2,0-22.1,9.9-22.1,22c0,12.2,9.9,22,22.1,22h37.3C442.4,422.3,452.3,412.4,452.3,400.3z"/>
	</g>
</g>
</svg>
