<?xml version="1.0" encoding="utf-8"?>
<!-- Generator: Adobe Illustrator 21.0.2, SVG Export Plug-In . SVG Version: 6.00 Build 0)  -->
<svg version="1.1" id="Forma_1_1_" xmlns="http://www.w3.org/2000/svg" xmlns:xlink="http://www.w3.org/1999/xlink" x="0px" y="0px"
	 viewBox="0 0 609 612" style="enable-background:new 0 0 609 612;" xml:space="preserve">
<style type="text/css">
	.st0{fill-rule:evenodd;clip-rule:evenodd;}
</style>
<g id="Forma_1">
	<g>
		<path class="st0" d="M570.1,0H151.8C130.4,0,113,17.4,113,38.9v36.6h40.8V40.8h414.4V455h-31.3v40.8h33.3
			c21.5,0,38.9-17.4,38.9-38.9v-418C609,17.4,591.6,0,570.1,0z M457.2,116.3H38.9C17.4,116.3,0,133.7,0,155.1v418
			C0,594.6,17.4,612,38.9,612h418.3c21.5,0,38.9-17.4,38.9-38.9v-418C496,133.7,478.6,116.3,457.2,116.3z M455.2,571.2H40.8V157
			h414.4V571.2z M72.4,546.2l94.4,0c2.8,0,5.2-1.7,6.3-4.2c1.1-2.5,0.5-5.5-1.5-7.4l-32.8-32.7l246.5-247.7l32.7,32.7
			c2,1.9,4.9,2.5,7.4,1.5c2.6-1.1,4.2-3.5,4.2-6.3l0-94.3c0-3.8-3-6.8-6.8-6.8l-94.4,0c-2.8,0-5.2,1.7-6.3,4.2
			c-1.1,2.5-0.5,5.5,1.5,7.4l32.8,32.8L110,473.1l-32.8-32.8c-2-1.9-4.9-2.5-7.4-1.5c-2.6,1.1-4.2,3.5-4.2,6.3v94.3
			C65.6,543.2,68.7,546.2,72.4,546.2z"/>
	</g>
</g>
</svg>
