<?xml version="1.0" encoding="utf-8"?>
<!-- Generator: Adobe Illustrator 21.0.2, SVG Export Plug-In . SVG Version: 6.00 Build 0)  -->
<svg version="1.1" id="Forma_1_1_" xmlns="http://www.w3.org/2000/svg" xmlns:xlink="http://www.w3.org/1999/xlink" x="0px" y="0px"
	 viewBox="0 0 586 586" style="enable-background:new 0 0 586 586;" xml:space="preserve">
<style type="text/css">
	.st0{fill-rule:evenodd;clip-rule:evenodd;}
</style>
<g id="Forma_1">
	<g>
		<path class="st0" d="M561.9,0H24.8C-0.3,0.8-4,28.1,4.6,38l212,315v208.4c3.1,30.6,33.1,26.2,39.1,19.5l104.7-79
			c6.1-4.7,9.7-11.8,9.7-19.5V353l212-315C595,17.2,576.5,0,561.9,0z M325.6,332c-2.7,4.1-4.2,8.7-4.2,13.6v124.7l-56,42.2V345.6
			c0-4.9-1.4-9.6-4.2-13.6L70.7,48.8H516L325.6,332z"/>
	</g>
</g>
</svg>
