<?xml version="1.0" encoding="utf-8"?>
<!-- Generator: Adobe Illustrator 21.0.2, SVG Export Plug-In . SVG Version: 6.00 Build 0)  -->
<svg version="1.1" id="Forma_1_1_" xmlns="http://www.w3.org/2000/svg" xmlns:xlink="http://www.w3.org/1999/xlink" x="0px" y="0px"
	 viewBox="0 0 322 487" style="enable-background:new 0 0 322 487;" xml:space="preserve">
<style type="text/css">
	.st0{fill-rule:evenodd;clip-rule:evenodd;}
</style>
<g id="Forma_1">
	<g>
		<path class="st0" d="M229.6,74.5l13-35.7L136.2,0l-13,35.7L30.8,2.1L0,86.7l178.4,65H8.5V487h269.9V188.2l12.8,4.6l30.8-84.6
			L229.6,74.5z M88.5,457h-50V181.7h50V457z M168.5,457h-50V181.7h50V457z M154.1,38.5l50,18.2l-2.7,7.5l-50-18.2L154.1,38.5z
			 M248.5,457h-50V181.7h50V457z M273.3,154.3L38.4,68.8l10.3-28.2l234.9,85.6L273.3,154.3z"/>
	</g>
</g>
</svg>
