<?xml version="1.0" encoding="utf-8"?>
<!-- Generator: Adobe Illustrator 21.0.2, SVG Export Plug-In . SVG Version: 6.00 Build 0)  -->
<svg version="1.1" id="Forma_1_1_" xmlns="http://www.w3.org/2000/svg" xmlns:xlink="http://www.w3.org/1999/xlink" x="0px" y="0px"
	 viewBox="0 0 29 30" style="enable-background:new 0 0 29 30;" xml:space="preserve">
<style type="text/css">
	.st0{fill-rule:evenodd;clip-rule:evenodd;}
</style>
<g id="Forma_1">
	<g>
		<path class="st0" d="M25,19.1V26H4v-6.8H0V28c0,1.1,0.9,2,2,2h25c1.1,0,2-0.9,2-2v-8.9H25z M8.4,11.5l5.8,7c0,0,0.5,0.6,1,0.1
			c0.7-0.7,5.6-7.2,5.6-7.2s0.9-0.9-0.3-0.9c-1.2,0-3,0-3,0s0-0.5,0-1.3c0-2.4,0-7,0-8.7c0,0,0-0.4-0.5-0.4c-0.5,0-3.8,0-4.6,0
			c-0.7,0-0.6,0.5-0.6,0.5c0,1.8,0,6.3,0,8.7c0,0.9,0,1.4,0,1.4s-2.3,0-3.2,0C7.5,10.6,8.4,11.5,8.4,11.5z"/>
	</g>
</g>
</svg>
