<?xml version="1.0" encoding="utf-8"?>
<!-- Generator: Adobe Illustrator 21.0.2, SVG Export Plug-In . SVG Version: 6.00 Build 0)  -->
<svg version="1.1" id="Forma_1_1_" xmlns="http://www.w3.org/2000/svg" xmlns:xlink="http://www.w3.org/1999/xlink" x="0px" y="0px"
	 viewBox="0 0 27 28" style="enable-background:new 0 0 27 28;" xml:space="preserve">
<g id="Forma_1">
	<g>
		<path d="M24.8,0H2.2C0.9,0-0.1,1-0.1,2.2v23.6c0,1.2,1,2.2,2.3,2.2h22.7c1.2,0,2.3-1,2.3-2.2V2.2C27.1,1,26.1,0,24.8,0z
			 M16.3,26.3H3.5c-1.1,0-2-0.9-2-2V9.6h14.8V26.3z M25.5,24.4c0,1.1-0.9,2-2,2h-4.9V9.6h6.9V24.4z M25.5,7.5H1.5V3.6
			c0-1.1,0.9-2,2-2h19.9c1.1,0,2,0.9,2,2V7.5z"/>
	</g>
</g>
</svg>
