<?xml version="1.0" encoding="utf-8"?>
<!-- Generator: Adobe Illustrator 21.0.2, SVG Export Plug-In . SVG Version: 6.00 Build 0)  -->
<svg version="1.1" id="Shape_1_1_" xmlns="http://www.w3.org/2000/svg" xmlns:xlink="http://www.w3.org/1999/xlink" x="0px" y="0px"
	 viewBox="0 0 285 330" style="enable-background:new 0 0 285 330;" xml:space="preserve">
<style type="text/css">
	.st0{fill-rule:evenodd;clip-rule:evenodd;}
</style>
<g id="Shape_1">
	<g>
		<path class="st0" d="M196.8,165.3v-16.9c1.3,0.4,2.3,1,3.3,1.4c1.5,0.7,3,1.5,4.8,1.5c5.2,0,8.1-5.3,8.1-8.9
			c0-6.8-8.7-9.9-16.2-11v-0.5c0-3.8-3.4-7-7.5-7c-4.1,0-7.5,3.1-7.5,7v0.9c-12.2,2.4-19.4,10.6-19.4,22.6
			c0,15.2,10.5,20.3,19.4,23.6v21.6c-3.5-1-5.3-2.9-6.8-4.5c-1.5-1.5-3.3-3.4-6.2-3.4c-4.7,0-8.2,4.7-8.2,8.9
			c0,6.8,8.8,14.4,21.3,16.1v1.2c0,3.9,3.3,7,7.5,7c4,0,7.5-3.2,7.5-7v-2.1c11.4-3.1,18.1-12.1,18.1-24.9
			C214.9,174.4,204.2,168.3,196.8,165.3z M182.1,159.4c-2.2-1.5-2.9-3.1-2.9-5.7c0-1.2,0-3.5,2.9-5V159.4z M196.5,197.3v-11.9
			c1.1,1.5,1.6,3.5,1.6,6.1C198.1,194.1,197.6,196,196.5,197.3z M270,0H15C6.7,0,0,6.7,0,15v299.8c0,6.1,3.7,11.5,9.3,13.9
			s12.1,1,16.4-3.3l31.9-31.8l31.9,31.8c2.8,2.8,6.6,4.4,10.6,4.4c4,0,7.8-1.6,10.6-4.4l31.9-31.8l31.9,31.8
			c2.8,2.8,6.6,4.4,10.6,4.4c4,0,7.8-1.6,10.6-4.4l31.9-31.8l31.9,31.8c2.9,2.9,6.7,4.4,10.6,4.4c1.9,0,3.9-0.4,5.7-1.1
			c5.6-2.3,9.3-7.8,9.3-13.9V15C285,6.7,278.3,0,270,0z M255,278.6L255,278.6l-16.8-16.8c-2.8-2.8-6.6-4.4-10.6-4.4
			c-4,0-7.8,1.6-10.6,4.4L185,293.6l-31.9-31.8c-2.9-2.9-6.8-4.4-10.6-4.4c-3.8,0-7.7,1.5-10.6,4.4L100,293.6l-31.9-31.8
			c-2.8-2.8-6.6-4.4-10.6-4.4c-4,0-7.8,1.6-10.6,4.4L30,278.6V30H255V278.6z M75.1,99.9h134.8c8.3,0,15-6.7,15-15s-6.7-15-15-15
			H75.1c-8.3,0-15,6.7-15,15S66.8,99.9,75.1,99.9z M75.1,159.9h54.6c8.3,0,15-6.7,15-15c0-8.3-6.7-15-15-15H75.1
			c-8.3,0-15,6.7-15,15C60.1,153.2,66.8,159.9,75.1,159.9z M75.1,219.9h54.6c8.3,0,15-6.7,15-15c0-8.3-6.7-15-15-15H75.1
			c-8.3,0-15,6.7-15,15C60.1,213.2,66.8,219.9,75.1,219.9z"/>
	</g>
</g>
</svg>
