<?xml version="1.0" encoding="utf-8"?>
<!-- Generator: Adobe Illustrator 21.0.2, SVG Export Plug-In . SVG Version: 6.00 Build 0)  -->
<svg version="1.1" id="Shape_1_1_" xmlns="http://www.w3.org/2000/svg" xmlns:xlink="http://www.w3.org/1999/xlink" x="0px" y="0px"
	 viewBox="0 0 800 756" style="enable-background:new 0 0 800 756;" xml:space="preserve">
<style type="text/css">
	.st0{fill-rule:evenodd;clip-rule:evenodd;}
</style>
<g id="Shape_1">
	<g>
		<path class="st0" d="M790.3,577c-13.5-13.5-34.1-13.5-47.6,0l-57.9,57.9l-63.1-62.8l58.1-58.1c13.5-13.5,13.5-34.1,0-47.7
			c-13.5-13.5-34.1-13.5-47.6,0l-58.3,58.3L432.9,384.4c30.2-40.2,48.1-90.1,48.1-144.3C481.1,107.4,373.5,0,241,0S1,107.6,1,240.3
			C1,373,108.5,480.4,241,480.4c54.7,0,104.9-18.3,145.2-49l314,314c13.5,13.5,34.1,13.5,47.6,0c13.5-13.5,13.5-34.1,0-47.7
			l-15.3-15.3l57.9-57.9C804,611,804,590.6,790.3,577z M241,413.6c-95.8,0-173.3-77.7-173.3-173.3S145.4,66.9,241,66.9
			c95.8,0,173.3,77.7,173.3,173.3S336.8,413.6,241,413.6z"/>
	</g>
</g>
</svg>
