<?xml version="1.0" encoding="utf-8"?>
<!-- Generator: Adobe Illustrator 21.0.2, SVG Export Plug-In . SVG Version: 6.00 Build 0)  -->
<svg version="1.1" id="Shape_1_1_" xmlns="http://www.w3.org/2000/svg" xmlns:xlink="http://www.w3.org/1999/xlink" x="0px" y="0px"
	 viewBox="0 0 313 313" style="enable-background:new 0 0 313 313;" xml:space="preserve">
<style type="text/css">
	.st0{fill-rule:evenodd;clip-rule:evenodd;}
</style>
<g id="Shape_1">
	<g>
		<path class="st0" d="M305.5,149h-15.6C286.1,80.8,231.4,26.8,164,23.1V7.5c0-4.1-3.4-7.5-7.5-7.5S149,3.4,149,7.5v15.6
			C81.1,26.9,26.9,81.3,23.1,149H7.5c-4.1,0-7.5,3.4-7.5,7.5c0,4.1,3.4,7.5,7.5,7.5h15.6c3.8,67.9,58.2,122.2,125.9,125.9v15.6
			c0,4.1,3.4,7.5,7.5,7.5s7.5-3.4,7.5-7.5v-15.6c68.1-3.8,122.2-58.4,125.9-125.9h15.6c4.1,0,7.5-3.4,7.5-7.5
			C313,152.4,309.6,149,305.5,149z M260.6,99.6l-39.2,39.2c-6.3-22.9-24.4-41-47.2-47.2l39.2-39.2C233.2,63.3,249.7,79.8,260.6,99.6
			z M208.8,156.5c0,28.9-23.6,52.3-52.3,52.3c-28.9,0-52.3-23.6-52.3-52.3c0-28.9,23.6-52.3,52.3-52.3
			C185.4,104.2,208.8,127.8,208.8,156.5z M198.9,45.7l-42.4,42.4l-42.4-42.4C141.3,35.3,171.6,35.2,198.9,45.7z M99.6,52.4
			l39.2,39.2c-22.6,6.2-40.9,24-47.2,47.2L52.4,99.6C63.3,79.8,79.8,63.3,99.6,52.4z M45.7,114.1l42.4,42.4l-42.4,42.4
			C35.3,171.7,35.2,141.4,45.7,114.1z M52.4,213.4l39.2-39.2c6.2,22.6,24,40.9,47.2,47.2l-39.2,39.2
			C79.8,249.7,63.3,233.2,52.4,213.4z M114.1,267.3l42.4-42.4l42.4,42.4C171.7,277.7,141.4,277.8,114.1,267.3z M213.4,260.6
			l-39.2-39.2c22.5-6.1,40.9-23.9,47.2-47.2l39.2,39.2C249.7,233.2,233.2,249.7,213.4,260.6z M267.3,198.9l-42.4-42.4l42.4-42.4
			C277.7,141.3,277.8,171.6,267.3,198.9z"/>
	</g>
</g>
</svg>
