<?xml version="1.0" encoding="utf-8"?>
<!-- Generator: Adobe Illustrator 21.0.2, SVG Export Plug-In . SVG Version: 6.00 Build 0)  -->
<svg version="1.1" id="Forma_1_1_" xmlns="http://www.w3.org/2000/svg" xmlns:xlink="http://www.w3.org/1999/xlink" x="0px" y="0px"
	 viewBox="0 0 612 612" style="enable-background:new 0 0 612 612;" xml:space="preserve">
<style type="text/css">
	.st0{fill-rule:evenodd;clip-rule:evenodd;}
</style>
<g id="Forma_1">
	<g>
		<path class="st0" d="M604.6,536.7L478.1,410.1c-4.7-4.7-4.7-9.4-2.3-14.1c25.8-39.8,39.8-86.7,39.8-138.3
			C515.6,114.8,400.7,0,257.8,0S0,114.8,0,257.8s114.8,257.8,257.8,257.8c51.6,0,98.4-14.1,138.3-39.8c4.7-2.3,11.7-2.3,14.1,2.3
			l126.5,126.5c9.4,9.4,23.4,9.4,32.8,0l32.8-32.8C614,560.1,614,546,604.6,536.7z M260.1,421.8c-91.4,0-164-72.6-164-164
			s72.6-164,164-164s164,72.6,164,164S351.5,421.8,260.1,421.8z"/>
	</g>
</g>
</svg>
