<?xml version="1.0" encoding="utf-8"?>
<!-- Generator: Adobe Illustrator 21.0.2, SVG Export Plug-In . SVG Version: 6.00 Build 0)  -->
<svg version="1.1" id="Forma_1_1_" xmlns="http://www.w3.org/2000/svg" xmlns:xlink="http://www.w3.org/1999/xlink" x="0px" y="0px"
	 viewBox="0 0 384 321" style="enable-background:new 0 0 384 321;" xml:space="preserve">
<style type="text/css">
	.st0{fill-rule:evenodd;clip-rule:evenodd;}
</style>
<g id="Forma_1">
	<g>
		<path class="st0" d="M369.6,291h-70.3l65.9-65.9c6.3-6.3,6.3-16.5,0-22.7L167.5,4.7c-6.3-6.3-16.5-6.3-22.7,0L19.8,129.7
			c-6.3,6.3-6.3,16.5,0,22.7L158.4,291h-143c-8.3,0-15,6.7-15,15c0,8.3,6.7,15,15,15h354.2c8.3,0,15-6.7,15-15
			C384.6,297.7,377.9,291,369.6,291z M304.6,187.3L204,165.9L182.6,65.3L304.6,187.3z M203.9,291L54,141l91.6-91.6L174,183.2
			c0.7,3.2,2.3,6,4.5,8.2c2.2,2.2,5,3.8,8.2,4.5l133.7,28.5L253.8,291H203.9z"/>
	</g>
</g>
</svg>
