<?xml version="1.0" encoding="utf-8"?>
<!-- Generator: Adobe Illustrator 21.0.2, SVG Export Plug-In . SVG Version: 6.00 Build 0)  -->
<svg version="1.1" id="Shape_1_1_" xmlns="http://www.w3.org/2000/svg" xmlns:xlink="http://www.w3.org/1999/xlink" x="0px" y="0px"
	 viewBox="0 0 297 85" style="enable-background:new 0 0 297 85;" xml:space="preserve">
<style type="text/css">
	.st0{fill-rule:evenodd;clip-rule:evenodd;}
</style>
<g id="Shape_1">
	<g>
		<path class="st0" d="M254.6,1c-23.4,0-42.4,19.1-42.4,42.5c0,20.3,14.3,37.3,33.3,41.5h18.2c19-4.2,33.3-21.2,33.3-41.5
			C297,20.1,278,1,254.6,1z M148.5,1c-23.4,0-42.4,19.1-42.4,42.5c0,20.3,14.3,37.3,33.3,41.5h18.2c19-4.2,33.3-21.2,33.3-41.5
			C190.9,20.1,171.9,1,148.5,1z M42.4,1C19,1,0,20.1,0,43.5C0,63.8,14.3,80.8,33.3,85h18.2c19-4.2,33.3-21.2,33.3-41.5
			C84.7,20.1,65.7,1,42.4,1z"/>
	</g>
</g>
</svg>
