<?xml version="1.0" encoding="utf-8"?>
<!-- Generator: Adobe Illustrator 21.0.2, SVG Export Plug-In . SVG Version: 6.00 Build 0)  -->
<svg version="1.1" id="Forma_1_1_" xmlns="http://www.w3.org/2000/svg" xmlns:xlink="http://www.w3.org/1999/xlink" x="0px" y="0px"
	 viewBox="0 0 395 400" style="enable-background:new 0 0 395 400;" xml:space="preserve">
<style type="text/css">
	.st0{fill-rule:evenodd;clip-rule:evenodd;}
</style>
<g id="Forma_1">
	<g>
		<path class="st0" d="M391.1,131.4l-29.5-29.5c0,0,0,0,0,0c0,0,0,0,0,0l-29.5-29.5c-2.3-2.3-5.5-3.7-8.8-3.7
			c-3.3,0-6.5,1.3-8.8,3.7l-14.6,14.6V12.5c0-6.9-5.6-12.5-12.5-12.5H12.5C5.6,0,0,5.6,0,12.5v375c0,6.9,5.6,12.5,12.5,12.5h274.9
			c6.9,0,12.5-5.6,12.5-12.5v-147l91.3-91.4C396,144.2,396,136.3,391.1,131.4z M274.9,375H25V25h249.9v86.9L171.6,215.3
			c-1.7,1.7-2.9,3.9-3.4,6.3l-15.4,74.5c-0.9,4.1,0.4,8.4,3.4,11.4c2.4,2.4,5.6,3.7,8.8,3.7c0.8,0,1.7-0.1,2.5-0.3l74.4-15.4
			c2.4-0.5,4.6-1.7,6.3-3.4l26.6-26.6V375z M188,249.4l26.2,26.3l-33.1,6.8L188,249.4z M239.5,265.6l-41.3-41.4L323.3,98.9
			l11.8,11.9l-76.3,76.4c-4.9,4.9-4.9,12.8,0,17.7c2.4,2.4,5.6,3.7,8.8,3.7s6.4-1.2,8.8-3.7l76.3-76.4l11.8,11.9L239.5,265.6z"/>
	</g>
</g>
</svg>
