<?xml version="1.0" encoding="utf-8"?>
<!-- Generator: Adobe Illustrator 21.0.2, SVG Export Plug-In . SVG Version: 6.00 Build 0)  -->
<svg version="1.1" id="Forma_1_1_" xmlns="http://www.w3.org/2000/svg" xmlns:xlink="http://www.w3.org/1999/xlink" x="0px" y="0px"
	 viewBox="0 0 440 481" style="enable-background:new 0 0 440 481;" xml:space="preserve">
<style type="text/css">
	.st0{fill-rule:evenodd;clip-rule:evenodd;}
</style>
<g id="Forma_1">
	<g>
		<path class="st0" d="M265,192.7H65v30h200V192.7z M368.7,388.4c12.5-16.9,19.9-37.8,19.9-60.4c0-40.7-24-75.9-58.6-92.1v-127
			L221.2,0H0v445.4h330V420c6.2-2.9,12-6.4,17.5-10.4l71.3,71.4l21.2-21.2L368.7,388.4z M230,51.3l48.8,48.8H230V51.3z M30,415.3V30
			h170v100.1h100v97c-4.2-0.5-8.5-0.8-12.9-0.8c-31.2,0-59.1,14.2-77.8,36.4H65v30h126.8c-4.1,11-6.3,22.8-6.3,35.2
			c0,1.6,0,3.2,0.1,4.8H65v30h126.7c8.1,22.1,23.7,40.7,43.6,52.5H30z M287.1,399.5c-39.4,0-71.5-32.1-71.5-71.6
			c0-39.5,32.1-71.6,71.5-71.6s71.5,32.1,71.5,71.6S326.5,399.5,287.1,399.5z"/>
	</g>
</g>
</svg>
