<?xml version="1.0" encoding="utf-8"?>
<!-- Generator: Adobe Illustrator 21.0.2, SVG Export Plug-In . SVG Version: 6.00 Build 0)  -->
<svg version="1.1" id="Shape_1_1_" xmlns="http://www.w3.org/2000/svg" xmlns:xlink="http://www.w3.org/1999/xlink" x="0px" y="0px"
	 viewBox="0 0 512 232" style="enable-background:new 0 0 512 232;" xml:space="preserve">
<style type="text/css">
	.st0{fill-rule:evenodd;clip-rule:evenodd;}
</style>
<g id="Shape_1">
	<g>
		<path class="st0" d="M501.8,0H171.3c-5.6,0-10.2,4.6-10.2,10.2v19.2H63.9c-5.6,0-10.2,4.6-10.2,10.2c0,5.6,4.6,10.2,10.2,10.2
			h97.2v132.4H103c-5.6,0-10.2,4.6-10.2,10.2c0,5.6,4.6,10.2,10.2,10.2h58.1v19.2c0,5.6,4.6,10.2,10.2,10.2h330.5
			c5.6,0,10.2-4.6,10.2-10.2V10.2C512,4.6,507.4,0,501.8,0z M476.6,20.4L336.6,135.3L197.1,20.4H476.6z M491.6,211.6H181.5V33.9
			l148.6,122.4c1.9,1.6,4.2,2.3,6.5,2.3c2.3,0,4.6-0.8,6.5-2.3L491.6,34.5V211.6z M129.9,115c0-5.6-4.6-10.2-10.2-10.2H10.2
			C4.6,104.8,0,109.3,0,115s4.6,10.2,10.2,10.2h109.5C125.3,125.2,129.9,120.6,129.9,115z M69.4,182.2h-5.5
			c-5.6,0-10.2,4.6-10.2,10.2c0,5.6,4.6,10.2,10.2,10.2h5.5c5.6,0,10.2-4.6,10.2-10.2C79.6,186.8,75,182.2,69.4,182.2z"/>
	</g>
</g>
</svg>
