<?xml version="1.0" encoding="utf-8"?>
<!-- Generator: Adobe Illustrator 21.0.2, SVG Export Plug-In . SVG Version: 6.00 Build 0)  -->
<svg version="1.1" id="Forma_1_1_" xmlns="http://www.w3.org/2000/svg" xmlns:xlink="http://www.w3.org/1999/xlink" x="0px" y="0px"
	 viewBox="0 0 24 27" style="enable-background:new 0 0 24 27;" xml:space="preserve">
<style type="text/css">
	.st0{fill-rule:evenodd;clip-rule:evenodd;}
</style>
<g id="Forma_1">
	<g>
		<path class="st0" d="M13.3,4.2c1.2,0,2.2-0.9,2.2-2.1c0-1.2-1-2.1-2.2-2.1c-1.2,0-2.2,0.9-2.2,2.1C11.1,3.2,12.1,4.2,13.3,4.2z
			 M22.2,9.7l2.4-2.2c0.3-0.3,0.4-0.6,0.2-1l-1.1-3C23.5,3.1,23,2.8,22.5,3c-0.5,0.2-0.8,0.7-0.6,1.2l0.9,2.4l-5.3,4.9
			c-0.4,0.4-0.4,0.9,0,1.3c0.2,0.2,0.4,0.3,0.7,0.3c0.2,0,0.5-0.1,0.7-0.3l2-1.8l2.1,3.7l-2.5,10.4H1c-0.5,0-1,0.4-1,0.9
			C0,26.6,0.4,27,1,27h20.2c0.4,0,0.8-0.3,0.9-0.7l2.7-11.5c0-0.2,0-0.5-0.1-0.7L22.2,9.7z M1.3,23.3c0.1,0,0.3,0,0.4-0.1l6.9-3
			C8.8,20.2,9,20,9.1,19.7l1.9-5.4l4,3.4l-0.4,5.6c0,0.5,0.4,1,0.9,1c0,0,0,0,0.1,0c0.5,0,0.9-0.4,1-0.9l0.5-6.1
			c0-0.3-0.1-0.6-0.3-0.8l-5-4.3l1-5l3.1,2.2c0.4,0.3,1,0.2,1.3-0.1L20,6.4c0.4-0.4,0.3-1-0.1-1.3c-0.4-0.3-1-0.3-1.4,0.1l-2.3,2.5
			L12.6,5c0,0,0,0-0.1,0c-0.1-0.1-0.2-0.1-0.3-0.1c0,0-0.1,0-0.1,0c0,0-0.1,0-0.1,0L7.1,5.3c-0.3,0-0.6,0.2-0.7,0.5L4.3,9.3
			c-0.3,0.4-0.1,1,0.4,1.3c0.2,0.1,0.3,0.1,0.5,0.1c0.3,0,0.7-0.2,0.8-0.5l1.8-3.2l3-0.3l-1.2,5.7l-2.2,6.2l-6.5,2.8
			c-0.5,0.2-0.7,0.8-0.5,1.2C0.6,23.1,0.9,23.3,1.3,23.3z"/>
	</g>
</g>
</svg>
