<?xml version="1.0" encoding="utf-8"?>
<!-- Generator: Adobe Illustrator 21.0.2, SVG Export Plug-In . SVG Version: 6.00 Build 0)  -->
<svg version="1.1" id="Forma_1_1_" xmlns="http://www.w3.org/2000/svg" xmlns:xlink="http://www.w3.org/1999/xlink" x="0px" y="0px"
	 viewBox="0 0 466 612" style="enable-background:new 0 0 466 612;" xml:space="preserve">
<style type="text/css">
	.st0{fill-rule:evenodd;clip-rule:evenodd;}
</style>
<g id="Forma_1">
	<g>
		<path class="st0" d="M311.2,0h-246C29.2,0,0,29.2,0,65.1v481.7C0,582.8,29.2,612,65.2,612h335.6c35.9,0,65.2-29.2,65.2-65.1V154.2
			L311.2,0z M400.8,572.1H65.2c-13.9,0-25.3-11.3-25.3-25.2V65.1c0-13.9,11.3-25.2,25.3-25.2l231-0.2V125
			c0,24.9,20.3,45.2,45.2,45.2l83.7-0.2l0.9,376.9C426,560.8,414.7,572.1,400.8,572.1z M242,206.3c-5-5-13.1-5-18.1,0l-71.6,71.5
			c-3.7,3.7-4.8,9.2-2.8,13.9c2,4.8,6.6,7.9,11.8,7.9h31.3v92.7c0,9.4,7.6,17,17,17h46.5c9.4,0,17-7.6,17-17v-92.7h31.3
			c5.2,0,9.8-3.1,11.8-7.9c2-4.8,0.9-10.3-2.8-13.9L242,206.3z"/>
	</g>
</g>
</svg>
