<?xml version="1.0" encoding="utf-8"?>
<!-- Generator: Adobe Illustrator 21.0.2, SVG Export Plug-In . SVG Version: 6.00 Build 0)  -->
<svg version="1.1" id="Forma_1_1_" xmlns="http://www.w3.org/2000/svg" xmlns:xlink="http://www.w3.org/1999/xlink" x="0px" y="0px"
	 viewBox="0 0 612 612" style="enable-background:new 0 0 612 612;" xml:space="preserve">
<style type="text/css">
	.st0{fill-rule:evenodd;clip-rule:evenodd;}
</style>
<g id="Forma_1">
	<g>
		<path class="st0" d="M413.6,377.9c58.7-35.7,96.9-99.4,96.9-173.4c0-112.2-91.8-204-204-204s-204,91.8-204,204
			c0,73.9,38.2,137.7,96.9,173.4C97.4,416.2,20.9,505.4,0.5,612.5h51c25.5-117.3,130.1-204,255-204s229.5,86.7,255,204h51
			C592.1,502.8,515.6,413.6,413.6,377.9z M153.5,204.5c0-84.1,68.9-153,153-153s153,68.9,153,153s-68.9,153-153,153
			S153.5,288.6,153.5,204.5z"/>
	</g>
</g>
</svg>
