<svg width="18" height="18" viewBox="0 0 18 18" xmlns="http://www.w3.org/2000/svg"><title>reset</title><g fill="#000" fill-rule="evenodd"><path d="M12.183 12.86a.48.48 0 0 1-.677 0l-1.933-1.933a.48.48 0 0 0-.678 0L6.981 12.84a.48.48 0 0 1-.678 0l-.413-.413a.48.48 0 0 1 0-.677l1.914-1.915a.48.48 0 0 0 0-.677L5.89 7.244a.48.48 0 0 1 0-.677l.427-.427a.48.48 0 0 1 .677 0l1.914 1.914a.48.48 0 0 0 .677 0L11.5 6.14a.48.48 0 0 1 .677 0l.413.413a.48.48 0 0 1 0 .678l-1.913 1.914a.48.48 0 0 0 0 .678l1.933 1.933a.48.48 0 0 1 0 .678l-.427.426z"/><path d="M9.217 17.893c-4.464 0-8.093-3.628-8.093-8.093a.675.675 0 1 1 1.351 0 6.748 6.748 0 0 0 6.741 6.74 6.748 6.748 0 0 0 6.741-6.74c0-3.718-3.022-6.723-6.74-6.723h-5.87a.675.675 0 1 1 0-1.35h5.87c4.465 0 8.093 3.628 8.093 8.092 0 4.446-3.628 8.074-8.093 8.074z"/><path d="M5.376.765L4.023 2.117c-.142.143-.142.392 0 .552L5.376 4.02a.383.383 0 0 1-.267.658h-.854a.362.362 0 0 1-.267-.107L2.085 2.668c-.142-.143-.142-.391 0-.552L3.988.213a.366.366 0 0 1 .267-.106h.854c.338 0 .515.409.267.658z"/></g></svg>